<svg xmlns="http://www.w3.org/2000/svg" width="1387" height="756" viewBox="0 0 1387 756">
<g>
<path d="M 322.86 441.07 C318.95,443.06 313.00,443.50 309.50,442.04 C303.73,439.64 298.15,429.50 295.54,416.65 C293.23,405.31 291.72,375.29 293.28,371.75 C293.94,370.24 294.81,369.00 295.19,369.00 C295.58,369.00 297.86,370.33 300.26,371.95 C304.88,375.06 306.19,377.13 307.98,384.16 C310.69,394.75 312.55,396.17 317.39,391.34 C322.43,386.30 326.33,384.00 329.83,384.00 C335.13,384.00 336.24,386.31 333.86,392.35 C330.51,400.86 332.43,398.42 339.07,385.74 C346.38,371.78 355.39,357.86 359.90,353.58 C363.07,350.56 368.86,348.04 372.68,348.02 C373.88,348.01 375.56,347.29 376.43,346.43 C377.29,345.56 378.00,345.34 378.00,345.93 C378.00,346.52 378.93,347.00 380.06,347.00 C381.20,347.00 381.84,347.45 381.49,348.02 C381.14,348.58 380.43,348.77 379.91,348.44 C379.38,348.12 379.04,348.22 379.16,348.68 C379.52,350.14 375.66,356.07 368.91,364.44 C358.62,377.19 354.07,385.70 343.51,411.97 C337.07,428.00 330.59,437.13 322.86,441.07 ZM 287.59 417.23 C286.99,417.64 285.28,417.98 283.79,417.98 C281.31,418.00 280.92,417.44 279.11,411.25 C278.03,407.54 276.65,400.33 276.05,395.24 C275.45,390.14 274.34,384.52 273.58,382.74 C272.82,380.96 271.73,375.81 271.15,371.30 C269.93,361.83 267.57,356.59 262.58,352.20 C251.49,342.47 238.90,349.83 224.50,374.48 C212.75,394.58 200.73,408.98 191.88,413.56 C188.29,415.42 188.16,414.13 191.61,410.92 C193.04,409.59 196.14,405.80 198.49,402.50 C204.51,394.06 207.95,387.03 221.70,355.08 C222.52,353.16 223.46,352.13 223.84,352.73 C224.91,354.47 229.22,350.23 234.76,342.00 C237.54,337.88 241.99,332.38 244.65,329.80 C256.58,318.22 271.35,317.60 279.13,328.33 C285.26,336.79 287.15,348.22 288.98,387.63 C289.99,409.57 289.70,415.82 287.59,417.23 ZM 963.84 427.08 C960.81,428.63 957.30,429.35 951.55,429.60 C942.13,430.01 938.95,429.19 932.36,424.66 C923.25,418.39 919.25,406.02 920.45,387.77 C921.43,372.90 923.19,369.58 929.51,370.73 C935.19,371.76 935.71,373.13 936.95,390.19 C938.29,408.60 943.44,414.97 957.00,414.97 C965.28,414.97 970.30,412.31 974.34,405.77 C976.91,401.61 977.34,399.75 978.03,389.78 C979.13,373.76 980.64,371.36 989.05,372.18 C992.13,372.48 992.48,372.88 993.67,377.50 C994.54,380.86 994.97,389.99 994.98,405.29 L 995.00 428.08 L 978.50 427.50 L 978.18 423.50 C977.72,417.62 976.61,417.22 972.09,421.30 C969.89,423.29 966.18,425.89 963.84,427.08 ZM 1199.35 426.15 C1194.01,428.78 1191.89,429.22 1183.35,429.52 C1177.93,429.71 1172.38,429.64 1171.00,429.38 C1151.67,425.63 1138.65,411.86 1137.31,393.74 C1136.43,381.90 1139.70,374.12 1145.88,373.40 C1147.64,373.20 1149.96,372.56 1151.04,371.98 C1152.12,371.40 1153.04,371.06 1153.09,371.21 C1153.14,371.37 1153.31,373.82 1153.47,376.66 C1153.64,379.50 1154.07,382.31 1154.44,382.91 C1155.21,384.16 1197.73,384.46 1199.65,383.23 C1200.29,382.83 1201.12,380.40 1201.50,377.83 C1202.07,374.07 1202.65,373.05 1204.53,372.58 C1210.59,371.06 1214.60,375.89 1215.66,385.97 C1216.22,391.41 1216.10,392.01 1214.39,392.14 C1213.35,392.21 1201.03,392.24 1187.00,392.20 C1156.71,392.12 1153.99,392.38 1154.02,395.36 C1154.09,401.83 1162.19,411.55 1169.62,414.08 C1171.75,414.81 1176.88,415.39 1181.00,415.38 C1187.11,415.36 1189.49,414.86 1193.83,412.68 C1196.76,411.21 1199.71,410.00 1200.37,410.00 C1201.04,410.00 1203.52,411.97 1205.88,414.38 L 1210.18 418.76 L 1207.84 420.94 C1206.55,422.14 1202.73,424.48 1199.35,426.15 ZM 405.55 423.30 C395.72,423.48 394.75,423.68 393.15,425.80 C392.20,427.06 391.13,427.80 390.77,427.44 C390.42,427.08 388.18,426.72 385.81,426.65 C383.44,426.57 381.57,426.16 381.66,425.74 C381.76,425.32 382.13,423.21 382.49,421.05 C383.03,417.85 384.11,416.39 388.33,413.15 C393.67,409.05 397.57,407.65 407.00,406.47 C415.51,405.40 427.34,401.33 429.90,398.60 C432.07,396.29 432.10,396.12 430.34,395.22 C429.33,394.70 427.15,393.96 425.50,393.57 C423.85,393.18 421.46,392.19 420.18,391.37 C418.32,390.16 418.10,389.58 419.06,388.43 C419.71,387.64 419.85,386.99 419.37,386.98 C418.89,386.96 421.42,385.38 424.98,383.46 C436.01,377.52 448.21,363.89 451.58,353.77 C453.17,348.98 453.40,348.73 454.32,350.78 C455.13,352.60 454.88,353.50 453.05,355.44 C450.16,358.52 451.11,360.00 455.98,360.00 C462.11,360.00 463.00,360.69 463.00,365.45 C463.00,368.91 462.10,370.97 458.09,376.68 C455.38,380.53 450.24,386.26 446.65,389.41 C442.72,392.85 440.33,395.69 440.64,396.51 C440.93,397.26 441.71,397.66 442.38,397.41 C443.05,397.15 445.60,398.01 448.05,399.31 C450.50,400.61 453.71,401.62 455.19,401.56 C457.38,401.46 457.66,401.70 456.73,402.82 C454.91,405.02 445.06,411.45 438.50,414.72 C426.75,420.59 417.20,423.08 405.55,423.30 ZM 835.05 392.00 L 834.50 427.50 L 825.75 427.79 C819.17,428.01 816.97,427.76 816.88,426.79 C816.81,426.08 816.85,416.05 816.95,404.50 C817.15,383.13 818.12,371.48 819.85,369.75 C820.41,369.19 822.98,369.08 825.97,369.50 C830.58,370.13 831.31,370.57 832.77,373.63 C833.69,375.57 835.39,377.31 836.67,377.63 C837.92,377.95 846.49,378.03 855.72,377.82 C873.40,377.42 876.22,376.76 881.72,371.74 C883.61,370.01 884.83,369.80 890.04,370.27 C893.41,370.58 896.42,371.09 896.74,371.41 C898.04,372.71 894.76,380.02 891.73,382.59 C883.38,389.65 873.10,391.95 849.77,391.98 ZM 1106.84 426.98 C1100.90,429.53 1087.15,430.46 1077.58,428.96 C1071.59,428.02 1059.97,423.19 1056.81,420.32 C1055.18,418.85 1055.20,418.53 1057.16,414.63 C1058.81,411.36 1059.61,409.66 1060.88,409.18 C1062.23,408.68 1064.10,409.57 1068.05,411.45 L 1068.59 411.70 C1074.88,414.69 1077.47,415.34 1084.88,415.76 C1097.89,416.50 1103.21,414.20 1104.61,407.21 C1105.15,404.51 1104.74,403.54 1101.87,400.69 C1099.22,398.05 1096.68,396.87 1090.00,395.17 C1074.26,391.15 1068.52,389.06 1064.78,385.98 C1060.86,382.74 1058.90,377.99 1059.71,373.72 C1060.13,371.52 1060.82,371.13 1064.85,370.75 C1069.18,370.35 1069.75,370.58 1073.11,374.13 C1077.41,378.67 1078.83,379.26 1093.32,382.52 C1112.02,386.72 1118.70,391.25 1120.94,401.24 C1123.33,411.89 1117.60,422.34 1106.84,426.98 ZM 334.42 315.56 C332.04,318.89 328.07,325.41 325.60,330.03 C323.04,334.82 320.91,337.81 320.66,336.97 C320.41,336.16 319.67,332.80 319.00,329.50 C317.30,321.04 312.68,310.39 308.09,304.35 L 304.18 299.20 L 306.73 295.35 C308.13,293.23 310.37,290.32 311.71,288.87 L 314.15 286.24 L 316.50 288.37 C317.79,289.54 320.15,291.68 321.73,293.13 C324.49,295.63 324.76,295.68 327.56,294.21 C329.18,293.37 333.65,290.02 337.50,286.77 C345.34,280.16 358.53,273.14 364.66,272.32 C368.32,271.83 368.91,272.07 370.90,274.87 C372.11,276.57 374.73,278.73 376.71,279.67 C380.29,281.37 380.30,281.39 377.91,282.33 C357.49,290.36 346.30,298.92 334.42,315.56 ZM 1036.30 404.50 L 1036.50 427.50 L 1019.00 428.08 L 1019.05 404.79 C1019.11,375.85 1019.46,374.66 1028.08,374.21 L 1033.65 373.91 L 1034.87 377.71 C1035.66,380.16 1036.17,389.64 1036.30,404.50 Z" fill="rgb(5,125,241)"/>
<path d="M 287.59 417.23 C289.70,415.82 289.99,409.57 288.98,387.63 C287.15,348.22 285.26,336.79 279.13,328.33 C271.35,317.60 256.58,318.22 244.65,329.80 C241.99,332.38 237.54,337.88 234.76,342.00 C229.22,350.23 224.91,354.47 223.84,352.73 C223.46,352.13 222.52,353.16 221.70,355.08 C209.18,384.17 205.20,392.60 200.05,400.25 C204.81,392.72 210.06,382.04 216.50,367.00 C219.67,359.58 223.82,349.90 225.72,345.50 C233.41,327.61 244.18,311.85 253.53,304.78 C260.00,299.89 265.76,298.00 274.24,298.00 C289.94,298.00 300.09,307.96 305.99,329.17 C307.92,336.13 309.81,352.39 311.87,379.81 C312.38,386.59 313.07,392.40 313.41,392.74 C314.40,393.74 316.57,390.30 324.33,375.41 C334.38,356.15 337.81,351.26 350.24,338.51 C356.14,332.46 360.96,327.27 360.95,327.00 C360.93,326.73 357.97,324.32 354.36,321.65 C350.75,318.98 348.18,316.46 348.65,316.04 C349.12,315.62 353.33,314.32 358.00,313.15 C366.81,310.94 410.17,299.30 413.25,298.32 C415.82,297.51 415.63,298.87 408.55,333.50 L 402.20 364.50 L 394.76 356.81 L 387.31 349.12 L 380.49 355.81 C366.54,369.49 359.60,381.00 347.59,410.35 C344.03,419.07 339.30,429.19 337.09,432.85 C332.09,441.12 324.90,448.29 319.00,450.89 C307.18,456.09 295.31,453.48 286.28,443.69 C277.09,433.72 273.58,420.38 272.48,391.18 C272.03,379.02 271.40,371.06 270.10,365.38 C270.52,367.16 270.86,369.12 271.15,371.30 C271.73,375.81 272.82,380.96 273.58,382.74 C274.34,384.52 275.45,390.14 276.05,395.24 C276.65,400.33 278.03,407.54 279.11,411.25 C280.92,417.44 281.31,418.00 283.79,417.98 C285.28,417.98 286.99,417.64 287.59,417.23 ZM 456.73 402.83 L 456.73 402.82 C457.66,401.70 457.38,401.46 455.19,401.56 C453.71,401.62 450.50,400.61 448.05,399.31 C445.60,398.01 443.05,397.15 442.38,397.41 C441.71,397.66 440.93,397.26 440.64,396.51 C440.33,395.69 442.72,392.85 446.65,389.41 C450.24,386.26 455.38,380.53 458.09,376.68 C462.10,370.97 463.00,368.91 463.00,365.45 C463.00,360.69 462.11,360.00 455.98,360.00 C451.11,360.00 450.16,358.52 453.05,355.44 C454.88,353.50 455.13,352.60 454.32,350.78 C453.40,348.73 453.17,348.98 451.58,353.77 C450.94,355.70 449.97,357.76 448.75,359.87 C449.00,359.42 449.23,358.98 449.43,358.55 C455.51,345.70 456.60,327.96 452.05,315.85 C443.73,293.70 422.62,280.00 396.82,280.00 C386.65,280.00 379.48,281.47 370.29,285.55 C372.69,284.45 375.22,283.39 377.91,282.33 C380.30,281.39 380.29,281.37 376.71,279.67 C374.73,278.73 372.11,276.57 370.90,274.87 C368.91,272.07 368.32,271.83 364.66,272.32 C358.53,273.14 345.34,280.16 337.50,286.77 C333.65,290.02 329.18,293.37 327.56,294.21 C324.76,295.68 324.49,295.63 321.73,293.13 C320.15,291.68 317.79,289.54 316.50,288.37 L 314.15 286.24 L 311.71 288.87 C311.02,289.62 310.08,290.77 309.14,292.00 L 309.27 291.81 C336.08,253.64 386.30,236.07 428.50,250.12 C454.83,258.88 476.16,278.50 484.89,302.00 C490.32,316.60 491.67,338.48 488.07,353.50 C483.50,372.52 472.22,390.00 456.73,402.83 ZM 838.00 395.00 L 838.00 431.00 L 813.00 431.00 L 813.00 319.90 L 845.25 320.25 C866.46,320.48 878.70,321.01 881.01,321.78 C891.78,325.40 901.24,334.45 904.73,344.50 C906.78,350.39 907.02,363.43 905.19,369.66 C902.18,379.93 892.11,389.34 880.19,393.02 C874.82,394.68 870.90,395.00 855.89,395.00 ZM 1193.50 431.64 C1190.75,432.37 1184.68,432.94 1180.00,432.90 C1165.26,432.78 1155.90,429.43 1146.69,421.00 C1132.19,407.74 1128.89,385.97 1138.49,367.02 C1145.66,352.87 1159.54,345.03 1177.67,344.90 C1195.51,344.77 1209.03,353.15 1216.29,368.84 C1218.93,374.56 1219.43,376.94 1219.80,385.75 L 1220.23 396.00 L 1189.78 396.00 C1173.03,396.00 1159.06,396.27 1158.73,396.60 C1157.68,397.66 1160.01,402.38 1163.31,405.87 C1167.74,410.55 1171.75,412.00 1180.30,412.00 C1187.58,412.00 1191.34,410.78 1198.74,405.98 C1200.87,404.60 1201.32,404.87 1207.98,411.48 L 1214.98 418.43 L 1211.74 421.80 C1207.94,425.76 1200.53,429.76 1193.50,431.64 ZM 960.20 431.96 C958.16,432.53 953.12,432.97 949.00,432.94 C935.21,432.86 925.70,427.00 920.15,415.15 L 917.50 409.50 L 917.20 377.72 L 916.90 345.94 L 928.70 346.22 L 940.50 346.50 L 941.00 374.00 C941.46,399.18 941.67,401.79 943.50,404.89 C946.50,409.97 951.30,412.20 958.26,411.75 C964.79,411.32 968.38,409.19 971.50,403.90 C973.33,400.79 973.54,398.18 974.00,373.50 L 974.50 346.50 L 986.75 346.22 L 999.00 345.94 L 999.00 431.00 L 975.00 431.00 L 975.00 427.50 C975.00,425.58 974.82,424.00 974.60,424.00 C974.38,424.00 971.88,425.56 969.05,427.47 C966.21,429.37 962.23,431.40 960.20,431.96 ZM 1108.00 429.86 C1100.31,433.41 1083.03,433.96 1072.10,431.01 C1064.24,428.89 1053.32,423.45 1051.67,420.84 C1050.46,418.92 1057.76,404.67 1060.20,404.20 C1061.06,404.03 1063.86,405.23 1066.42,406.85 C1079.51,415.15 1101.00,414.93 1101.00,406.50 C1101.00,402.44 1095.36,399.68 1081.50,396.95 C1062.62,393.24 1054.00,385.42 1054.00,372.01 C1054.00,368.67 1054.63,364.42 1055.40,362.58 C1057.72,357.02 1063.53,351.49 1070.24,348.43 C1075.55,346.01 1078.09,345.52 1087.00,345.19 C1094.63,344.91 1099.25,345.26 1103.92,346.47 C1110.20,348.11 1121.34,353.13 1122.37,354.79 C1122.77,355.44 1115.91,370.15 1114.39,371.90 C1114.20,372.12 1110.59,370.54 1106.36,368.40 C1099.29,364.80 1098.04,364.50 1090.45,364.50 C1083.70,364.50 1081.83,364.85 1080.06,366.44 C1074.83,371.18 1080.11,375.58 1095.01,378.90 C1107.43,381.68 1112.51,383.75 1117.41,388.06 C1122.83,392.81 1125.00,397.73 1124.99,405.21 C1124.97,416.72 1119.61,424.50 1108.00,429.86 ZM 322.86 441.07 C330.59,437.13 337.07,428.00 343.51,411.97 C354.07,385.70 358.62,377.19 368.91,364.44 C375.66,356.07 379.52,350.14 379.16,348.68 C379.04,348.22 379.38,348.12 379.91,348.44 C380.43,348.77 381.14,348.58 381.49,348.02 C381.84,347.45 381.20,347.00 380.06,347.00 C378.93,347.00 378.00,346.52 378.00,345.93 C378.00,345.34 377.29,345.56 376.43,346.43 C375.56,347.29 373.88,348.01 372.68,348.02 C368.86,348.04 363.07,350.56 359.90,353.58 C355.39,357.86 346.38,371.78 339.07,385.74 C332.43,398.42 330.51,400.86 333.86,392.35 C336.24,386.31 335.13,384.00 329.83,384.00 C326.33,384.00 322.43,386.30 317.39,391.34 C312.55,396.17 310.69,394.75 307.98,384.16 C306.19,377.13 304.88,375.06 300.26,371.95 C297.86,370.33 295.58,369.00 295.19,369.00 C294.81,369.00 293.94,370.24 293.28,371.75 C291.72,375.29 293.23,405.31 295.54,416.65 C298.15,429.50 303.73,439.64 309.50,442.04 C313.00,443.50 318.95,443.06 322.86,441.07 ZM 1040.00 317.00 L 1040.00 431.00 L 1015.00 431.00 L 1015.00 317.00 L 1040.00 317.00 ZM 963.84 427.08 C966.18,425.89 969.89,423.29 972.09,421.30 C976.61,417.22 977.72,417.62 978.18,423.50 L 978.50 427.50 L 995.00 428.08 L 994.98 405.29 C994.97,389.99 994.54,380.86 993.67,377.50 C992.48,372.88 992.13,372.48 989.05,372.18 C980.64,371.36 979.13,373.76 978.03,389.78 C977.34,399.75 976.91,401.61 974.34,405.77 C970.30,412.31 965.28,414.97 957.00,414.97 C943.44,414.97 938.29,408.60 936.95,390.19 C935.71,373.13 935.19,371.76 929.51,370.73 C923.19,369.58 921.43,372.90 920.45,387.77 C919.25,406.02 923.25,418.39 932.36,424.66 C938.95,429.19 942.13,430.01 951.55,429.60 C957.30,429.35 960.81,428.63 963.84,427.08 ZM 1199.35 426.15 C1202.73,424.48 1206.55,422.14 1207.84,420.94 L 1210.18 418.76 L 1205.88 414.38 C1203.52,411.97 1201.04,410.00 1200.37,410.00 C1199.71,410.00 1196.76,411.21 1193.83,412.68 C1189.49,414.86 1187.11,415.36 1181.00,415.38 C1176.88,415.39 1171.75,414.81 1169.62,414.08 C1162.19,411.55 1154.09,401.83 1154.02,395.36 C1153.99,392.38 1156.71,392.12 1187.00,392.20 C1201.03,392.24 1213.35,392.21 1214.39,392.14 C1216.10,392.01 1216.22,391.41 1215.66,385.97 C1214.60,375.89 1210.59,371.06 1204.53,372.58 C1202.65,373.05 1202.07,374.07 1201.50,377.83 C1201.12,380.40 1200.29,382.83 1199.65,383.23 C1197.73,384.46 1155.21,384.16 1154.44,382.91 C1154.07,382.31 1153.64,379.50 1153.47,376.66 C1153.31,373.82 1153.14,371.37 1153.09,371.21 C1153.04,371.06 1152.12,371.40 1151.04,371.98 C1149.96,372.56 1147.64,373.20 1145.88,373.40 C1139.70,374.12 1136.43,381.90 1137.31,393.74 C1138.65,411.86 1151.67,425.63 1171.00,429.38 C1172.38,429.64 1177.93,429.71 1183.35,429.52 C1191.89,429.22 1194.01,428.78 1199.35,426.15 ZM 835.05 392.00 L 849.77 391.98 C873.10,391.95 883.38,389.65 891.73,382.59 C894.76,380.02 898.04,372.71 896.74,371.41 C896.42,371.09 893.41,370.58 890.04,370.27 C884.83,369.80 883.61,370.01 881.72,371.74 C876.22,376.76 873.40,377.42 855.72,377.82 C846.49,378.03 837.92,377.95 836.67,377.63 C835.39,377.31 833.69,375.57 832.77,373.63 C831.31,370.57 830.58,370.13 825.97,369.50 C822.98,369.08 820.41,369.19 819.85,369.75 C818.12,371.48 817.15,383.13 816.95,404.50 C816.85,416.05 816.81,426.08 816.88,426.79 C816.97,427.76 819.17,428.01 825.75,427.79 L 834.50 427.50 ZM 1106.84 426.98 C1117.60,422.34 1123.33,411.89 1120.94,401.24 C1118.70,391.25 1112.02,386.72 1093.32,382.52 C1078.83,379.26 1077.41,378.67 1073.11,374.13 C1069.75,370.58 1069.18,370.35 1064.85,370.75 C1060.82,371.13 1060.13,371.52 1059.71,373.72 C1058.90,377.99 1060.86,382.74 1064.78,385.98 C1068.52,389.06 1074.26,391.15 1090.00,395.17 C1096.68,396.87 1099.22,398.05 1101.87,400.69 C1104.74,403.54 1105.15,404.51 1104.61,407.21 C1103.21,414.20 1097.89,416.50 1084.88,415.76 C1077.47,415.34 1074.88,414.69 1068.59,411.70 L 1068.05 411.45 C1064.10,409.57 1062.23,408.68 1060.88,409.18 C1059.61,409.66 1058.81,411.36 1057.16,414.63 C1055.20,418.53 1055.18,418.85 1056.81,420.32 C1059.97,423.19 1071.59,428.02 1077.58,428.96 C1087.15,430.46 1100.90,429.53 1106.84,426.98 ZM 838.06 359.32 L 837.80 373.14 L 854.33 372.82 C869.25,372.53 871.14,372.30 873.68,370.41 C883.76,362.93 883.39,348.98 872.98,343.75 C870.12,342.32 866.78,342.00 854.32,342.00 C840.68,342.00 839.09,342.18 838.72,343.75 C838.50,344.71 838.20,351.72 838.06,359.32 ZM 1036.30 404.50 C1036.17,389.64 1035.66,380.16 1034.87,377.71 L 1033.65 373.91 L 1028.08 374.21 C1019.46,374.66 1019.11,375.85 1019.05,404.79 L 1019.00 428.08 L 1036.50 427.50 ZM 1159.00 378.15 C1159.00,379.88 1160.17,380.00 1177.50,380.00 C1198.53,380.00 1198.64,379.95 1193.10,372.30 C1188.16,365.47 1177.87,363.07 1168.92,366.65 C1164.56,368.39 1159.00,374.84 1159.00,378.15 ZM 446.45 363.51 C442.09,369.80 435.89,376.15 429.63,380.56 C435.45,376.36 442.22,369.48 446.45,363.51 ZM 400.06 407.61 C396.13,408.48 393.36,409.66 390.43,411.63 C393.69,409.25 395.28,408.50 400.06,407.61 ZM 417.38 404.21 C413.90,405.23 410.21,406.06 407.00,406.47 C406.73,406.50 406.47,406.54 406.20,406.57 L 406.27 406.56 C409.72,406.00 413.98,405.09 417.38,404.21 ZM 448.12 409.19 C445.03,411.21 441.82,413.06 438.50,414.72 C441.39,413.28 444.92,411.22 448.12,409.19 ZM 419.00 388.50 C418.43,389.21 418.32,389.71 418.82,390.29 C418.22,389.60 418.22,388.98 418.97,388.52 C418.98,388.51 418.99,388.51 419.00,388.50 ZM 429.94 398.57 L 429.90 398.60 C429.31,399.24 428.21,399.94 426.78,400.67 C428.04,399.97 429.12,399.25 429.94,398.57 ZM 426.13 393.73 C427.67,394.14 429.45,394.77 430.34,395.22 C430.56,395.34 430.76,395.44 430.92,395.54 C430.04,395.05 428.19,394.35 426.13,393.73 ZM 355.25 294.04 C351.92,296.41 348.77,299.04 345.78,301.97 C348.75,299.04 351.86,296.43 355.25,294.04 ZM 305.83 296.71 L 304.18 299.20 L 304.13 299.13 ZM 426.24 382.75 C425.82,383.00 425.40,383.24 424.98,383.46 C423.93,384.03 422.96,384.57 422.14,385.05 C423.11,384.45 424.28,383.78 425.58,383.11 C425.79,383.00 426.02,382.88 426.24,382.75 ZM 431.48 395.97 C431.63,396.17 431.64,396.38 431.50,396.67 C431.59,396.41 431.58,396.17 431.48,395.97 ZM 419.58 387.06 C419.64,387.11 419.66,387.19 419.66,387.29 C419.64,387.24 419.62,387.20 419.59,387.15 C419.58,387.13 419.57,387.09 419.58,387.06 ZM 419.09 390.56 C419.34,390.78 419.66,391.02 420.07,391.29 C419.68,391.05 419.35,390.80 419.09,390.56 Z" fill="rgb(14,213,239)"/>
<path d="M 405.55 423.30 C410.80,423.20 415.62,422.64 420.42,421.52 C413.79,423.37 406.85,424.63 399.64,425.25 C397.05,425.48 396.52,426.21 394.04,433.00 C386.51,453.60 374.10,473.14 359.09,488.00 C338.60,508.28 314.93,520.50 288.34,524.50 C257.27,529.19 230.23,522.15 211.04,504.37 C204.14,497.99 196.94,487.66 193.53,479.27 C191.02,473.08 188.00,459.95 188.00,455.18 C188.00,452.42 188.25,452.25 193.25,451.73 C199.81,451.04 207.88,448.04 215.43,443.50 C218.63,441.57 221.41,440.00 221.62,440.00 C221.83,440.00 222.00,442.38 222.00,445.29 C222.00,457.21 227.80,470.68 236.46,478.88 C252.42,493.97 276.67,496.99 301.68,487.00 C329.90,475.73 351.47,450.58 364.03,414.31 C369.80,397.64 376.62,392.67 396.00,391.06 C407.07,390.13 415.43,388.25 422.65,384.74 C422.47,384.84 422.30,384.95 422.14,385.05 C420.19,386.18 419.03,386.97 419.37,386.98 C419.47,386.98 419.54,387.01 419.58,387.06 C419.57,387.09 419.58,387.13 419.59,387.15 C419.62,387.20 419.64,387.24 419.66,387.29 C419.64,387.56 419.44,387.97 419.06,388.43 C419.04,388.45 419.02,388.48 419.00,388.50 C418.99,388.51 418.98,388.51 418.97,388.52 C418.22,388.98 418.22,389.60 418.82,390.29 C418.89,390.38 418.99,390.47 419.09,390.56 L 419.09 390.56 C419.12,390.59 419.16,390.62 419.19,390.65 C419.42,390.85 419.71,391.06 420.07,391.29 C420.11,391.32 420.14,391.34 420.18,391.37 C421.46,392.19 423.85,393.18 425.50,393.57 C425.70,393.62 425.91,393.67 426.13,393.73 C428.19,394.35 430.04,395.05 430.92,395.54 C431.18,395.69 431.37,395.82 431.48,395.97 C431.58,396.17 431.59,396.41 431.50,396.67 C431.30,397.09 430.79,397.66 429.94,398.57 C429.12,399.25 428.04,399.97 426.78,400.67 C424.36,401.88 420.98,403.15 417.38,404.21 C413.98,405.09 409.72,406.00 406.27,406.56 L 406.20 406.57 C403.84,406.88 401.83,407.21 400.06,407.61 C395.28,408.50 393.69,409.25 390.43,411.63 C389.75,412.09 389.05,412.60 388.33,413.15 C385.96,414.97 384.58,416.23 383.73,417.55 L 383.73 417.55 L 383.73 417.55 C383.16,418.43 382.83,419.34 382.60,420.47 C382.56,420.65 382.53,420.85 382.49,421.05 L 382.49 421.05 C382.13,423.21 381.76,425.32 381.66,425.74 C381.57,426.16 383.44,426.57 385.81,426.65 C388.18,426.72 390.42,427.08 390.77,427.44 C391.13,427.80 392.20,427.06 393.15,425.80 C394.75,423.68 395.72,423.48 405.55,423.30 ZM 557.50 359.67 L 556.97 431.00 L 533.00 431.00 L 533.00 320.00 L 556.80 320.00 L 582.40 353.51 C596.48,371.94 608.55,387.92 609.24,389.01 C609.92,390.10 610.71,391.00 610.99,391.00 C611.27,390.99 611.46,387.06 611.42,382.25 C611.37,377.44 611.55,361.46 611.83,346.75 L 612.32 320.00 L 636.02 320.00 L 635.76 375.25 L 635.50 430.50 L 623.50 430.71 L 611.50 430.93 L 584.50 395.30 ZM 706.51 431.91 C684.16,436.05 662.57,425.97 653.71,407.27 C650.65,400.82 650.50,399.94 650.50,388.50 C650.51,376.96 650.64,376.24 653.81,369.74 C666.32,344.12 701.90,336.95 723.07,355.79 C731.24,363.06 736.95,377.20 736.99,390.25 L 737.00 396.00 L 705.50 396.00 C684.17,396.00 674.00,396.34 674.00,397.05 C674.00,399.28 677.04,403.80 680.83,407.23 C688.51,414.17 700.21,414.66 710.48,408.47 L 716.19 405.03 L 723.54 411.77 L 730.89 418.50 L 728.20 421.35 C724.45,425.30 713.55,430.61 706.51,431.91 ZM 794.19 430.47 C780.61,435.15 765.59,431.94 759.62,423.07 C754.98,416.18 754.50,412.98 754.50,388.75 L 754.50 366.00 L 748.25 366.00 L 742.00 366.00 L 742.00 347.00 L 755.20 347.00 L 754.90 340.25 C754.74,336.54 754.70,331.36 754.80,328.75 L 755.00 324.00 L 778.00 324.00 L 778.00 347.00 L 797.00 347.00 L 797.00 350.35 C797.00,352.20 797.29,356.47 797.64,359.85 L 798.28 366.00 L 777.89 366.00 L 778.19 387.09 C778.50,408.13 778.51,408.19 780.96,410.17 C783.43,412.17 789.29,412.35 794.50,410.58 C796.29,409.97 796.75,410.77 798.82,418.01 C801.51,427.40 801.28,428.03 794.19,430.47 ZM 195.56 439.93 C182.21,443.15 166.43,441.69 155.03,436.17 L 149.50 433.50 L 162.00 432.91 C176.07,432.24 183.82,430.07 195.61,423.47 C209.49,415.71 223.05,400.04 234.52,378.50 C240.53,367.21 243.33,363.40 247.00,361.50 C251.27,359.29 253.81,359.65 257.08,362.92 C262.88,368.73 260.35,377.76 247.26,398.00 C239.15,410.54 231.52,419.48 223.56,425.74 C215.99,431.71 203.58,438.00 195.56,439.93 ZM 1071.01 486.75 C1061.13,493.48 1047.30,484.90 1048.32,472.68 C1049.04,463.98 1055.43,458.67 1064.32,459.35 C1072.62,459.99 1078.31,465.85 1078.43,473.90 C1078.51,479.49 1076.46,483.04 1071.01,486.75 ZM 1152.30 486.58 C1149.95,487.72 1145.54,488.58 1140.75,488.82 L 1133.00 489.21 L 1133.00 459.00 L 1138.75 459.01 C1149.24,459.02 1155.27,461.81 1158.59,468.20 C1161.85,474.46 1158.78,483.42 1152.30,486.58 ZM 1024.00 484.00 C1024.00,488.89 1023.93,489.00 1021.00,489.00 L 1018.00 489.00 L 1018.00 459.00 L 1025.53 459.00 C1037.52,459.00 1042.00,461.81 1042.00,469.32 C1042.00,471.85 1041.18,473.56 1038.89,475.80 L 1035.79 478.83 L 1038.89 483.35 C1040.60,485.83 1042.00,488.12 1042.00,488.43 C1042.00,488.74 1040.70,489.00 1039.10,489.00 C1036.72,489.00 1035.64,488.11 1033.00,484.00 C1030.36,479.89 1029.28,479.00 1026.90,479.00 C1024.09,479.00 1024.00,479.15 1024.00,484.00 ZM 1201.80 483.75 C1201.53,488.10 1201.27,488.53 1198.75,488.82 L 1196.00 489.13 L 1196.00 458.76 L 1205.14 459.19 C1213.92,459.61 1214.39,459.75 1217.14,462.83 C1220.95,467.09 1220.88,470.93 1216.93,475.43 L 1213.86 478.93 L 1216.93 483.39 C1218.62,485.85 1220.00,488.12 1220.00,488.43 C1220.00,488.74 1218.70,489.00 1217.10,489.00 C1214.72,489.00 1213.64,488.11 1211.00,484.00 C1208.39,479.93 1207.27,479.00 1204.95,479.00 C1202.27,479.00 1202.09,479.27 1201.80,483.75 ZM 840.80 483.75 C840.53,488.10 840.27,488.53 837.75,488.82 L 835.00 489.13 L 835.00 459.00 L 842.03 459.00 C849.94,459.00 854.96,460.67 857.37,464.12 C859.89,467.71 859.38,471.50 855.85,475.52 L 852.69 479.11 L 855.85 483.59 C857.58,486.05 859.00,488.27 859.00,488.53 C859.00,488.79 857.65,489.00 856.01,489.00 C853.52,489.00 852.46,488.16 849.76,484.02 C847.19,480.10 845.93,479.03 843.80,479.02 C841.30,479.00 841.09,479.33 840.80,483.75 ZM 645.80 483.75 C645.53,488.10 645.27,488.53 642.75,488.82 L 640.00 489.13 L 640.00 459.00 L 647.25 459.00 C652.15,459.00 655.63,459.57 658.00,460.75 C664.59,464.05 665.61,471.63 660.08,476.28 L 657.31 478.61 L 659.72 482.05 C664.33,488.66 664.40,489.00 661.13,489.00 C658.74,489.00 657.51,488.05 654.60,484.00 C651.97,480.34 650.35,479.00 648.56,479.00 C646.35,479.00 646.08,479.46 645.80,483.75 ZM 994.00 484.00 C994.00,488.89 993.93,489.00 991.00,489.00 L 988.00 489.00 L 988.00 459.00 L 995.53 459.00 C1007.34,459.00 1012.00,461.83 1012.00,469.00 C1012.00,475.54 1007.53,479.00 999.05,479.00 L 994.00 479.00 ZM 552.22 478.86 C551.93,488.89 551.90,489.00 549.47,489.00 L 547.00 489.00 L 547.00 459.00 L 549.45 459.00 C551.37,459.00 553.49,461.07 559.20,468.50 L 566.50 478.00 L 567.00 468.75 C567.50,459.54 567.51,459.50 570.25,459.18 L 573.00 458.87 L 573.00 489.00 L 570.25 488.96 C567.94,488.93 566.30,487.31 560.00,478.83 L 552.50 468.72 ZM 676.34 479.20 L 676.50 488.50 L 673.75 488.82 L 671.00 489.13 L 671.00 458.87 L 673.75 459.18 C675.92,459.43 678.09,461.62 684.00,469.50 L 691.50 479.50 L 691.78 469.25 C692.07,459.10 692.09,459.00 694.53,459.00 L 697.00 459.00 L 697.00 489.13 L 694.26 488.82 C692.15,488.57 689.97,486.45 684.68,479.50 C680.91,474.55 677.45,470.36 677.00,470.20 C676.55,470.03 676.25,474.08 676.34,479.20 ZM 674.00 379.45 C674.00,379.75 683.01,380.00 694.01,380.00 L 714.03 380.00 L 712.48 376.29 C710.39,371.30 708.27,369.07 703.50,366.88 C699.05,364.84 690.63,364.43 686.32,366.06 C681.78,367.77 674.00,376.23 674.00,379.45 ZM 967.00 483.00 L 967.00 489.00 L 945.00 489.00 L 945.00 459.00 L 967.00 459.00 L 967.00 461.50 C967.00,463.96 966.87,464.00 959.00,464.00 L 951.00 464.00 L 951.00 471.00 L 958.50 471.00 C965.83,471.00 966.00,471.06 966.00,473.50 C966.00,475.94 965.83,476.00 958.50,476.00 L 951.00 476.00 L 951.00 483.00 ZM 633.00 483.00 L 633.00 489.00 L 611.00 489.00 L 611.00 459.00 L 633.00 459.00 L 633.00 461.46 C633.00,463.85 632.77,463.93 624.75,464.21 L 616.50 464.50 L 615.87 471.00 L 623.44 471.00 C630.84,471.00 631.00,471.05 631.00,473.50 C631.00,475.94 630.83,476.00 623.50,476.00 L 616.00 476.00 L 616.00 483.00 ZM 828.00 483.00 L 828.00 489.00 L 806.00 489.00 L 806.00 459.00 L 828.00 459.00 L 828.00 461.46 C828.00,463.85 827.77,463.93 819.75,464.21 L 811.50 464.50 L 810.87 471.00 L 818.44 471.00 C825.84,471.00 826.00,471.05 826.00,473.50 C826.00,475.94 825.83,476.00 818.50,476.00 L 811.00 476.00 L 811.00 483.00 ZM 727.00 483.00 L 727.00 489.00 L 716.47 489.00 C708.75,489.00 705.80,488.65 705.44,487.70 C705.16,486.98 705.07,480.35 705.22,472.95 L 705.50 459.50 L 716.25 459.22 L 727.00 458.93 L 727.00 461.47 C727.00,463.97 726.90,464.00 719.00,464.00 L 711.00 464.00 L 711.00 471.00 L 718.50 471.00 C725.83,471.00 726.00,471.06 726.00,473.50 C726.00,475.94 725.83,476.00 718.50,476.00 L 711.00 476.00 L 711.00 483.00 ZM 1188.82 486.25 L 1189.13 489.00 L 1167.00 489.00 L 1167.00 459.00 L 1189.00 459.00 L 1189.00 461.50 C1189.00,463.96 1188.86,464.00 1181.06,464.00 C1176.69,464.00 1172.91,464.34 1172.65,464.76 C1172.39,465.17 1172.42,466.75 1172.71,468.26 C1173.22,470.93 1173.40,471.00 1180.12,471.00 C1186.79,471.00 1187.00,471.08 1187.00,473.50 C1187.00,475.94 1186.83,476.00 1179.50,476.00 L 1172.00 476.00 L 1172.00 482.92 L 1180.25 483.21 C1188.42,483.50 1188.50,483.53 1188.82,486.25 ZM 794.93 487.54 C787.72,491.26 772.74,486.83 777.26,482.31 C778.58,480.99 779.10,481.00 781.83,482.41 C787.30,485.24 793.55,484.09 792.84,480.38 C792.59,479.08 790.48,477.82 785.99,476.28 C778.73,473.79 777.00,472.08 777.00,467.40 C777.00,460.51 786.07,456.91 794.53,460.45 C798.35,462.04 798.47,462.26 796.96,465.07 C796.00,466.87 795.71,466.90 793.01,465.51 C789.28,463.58 784.60,463.58 783.00,465.50 C781.15,467.73 783.20,469.65 789.62,471.67 C796.25,473.76 799.00,476.19 799.00,479.96 C799.00,484.20 798.08,485.91 794.93,487.54 ZM 1106.56 474.86 C1100.95,488.23 1100.48,489.00 1097.85,489.00 C1096.22,489.00 1094.68,488.27 1094.14,487.25 C1092.23,483.67 1083.00,461.17 1083.00,460.10 C1083.00,459.50 1084.28,459.00 1085.84,459.00 C1088.54,459.00 1088.92,459.59 1093.00,470.01 C1095.38,476.06 1097.48,480.86 1097.67,480.66 C1097.86,480.47 1099.95,475.63 1102.30,469.91 C1106.42,459.86 1106.69,459.49 1109.89,459.18 C1111.72,459.00 1113.05,459.28 1112.86,459.79 C1112.66,460.30 1109.83,467.08 1106.56,474.86 ZM 887.22 474.58 C881.69,487.92 881.32,488.51 878.38,488.80 C875.32,489.10 875.29,489.07 869.40,474.88 C866.16,467.06 863.34,460.26 863.14,459.76 C862.95,459.26 864.27,459.00 866.09,459.18 C869.21,459.48 869.58,459.96 872.64,467.50 C874.43,471.90 876.38,476.85 876.98,478.49 C878.04,481.42 878.16,481.26 882.78,470.49 C887.02,460.62 887.78,459.47 890.25,459.18 C891.76,459.01 893.00,459.27 893.00,459.76 C893.00,460.25 890.40,466.92 887.22,474.58 ZM 935.17 486.91 C921.42,493.93 906.79,480.26 913.85,466.98 C917.78,459.60 928.01,456.90 935.30,461.31 C939.00,463.55 939.05,463.65 937.17,465.35 C935.36,466.98 935.04,466.99 931.73,465.41 C921.68,460.62 913.02,473.17 920.92,481.08 C924.24,484.40 927.57,484.79 932.18,482.41 C935.08,480.91 935.38,480.93 937.26,482.82 L 939.27 484.82 ZM 1058.78 482.44 C1062.24,484.32 1064.41,484.36 1067.85,482.57 C1076.98,477.86 1072.89,464.00 1062.38,464.00 C1058.46,464.00 1054.00,469.06 1054.00,473.49 C1054.00,478.09 1055.32,480.57 1058.78,482.44 ZM 595.00 476.50 C595.00,488.93 594.99,489.00 592.67,489.00 C591.38,489.00 590.03,488.70 589.67,488.33 C589.30,487.97 589.00,482.34 589.00,475.83 L 589.00 464.00 L 584.50 464.00 C580.35,464.00 580.00,463.80 580.00,461.47 L 580.00 458.94 L 592.25 459.22 C604.09,459.49 604.51,459.57 604.82,461.75 C605.11,463.83 604.75,464.00 600.07,464.00 L 595.00 464.00 ZM 747.60 476.50 L 747.50 488.50 L 744.75 488.82 L 742.00 489.13 L 742.00 464.00 L 737.50 464.00 C733.37,464.00 733.00,463.80 733.00,461.50 L 733.00 459.00 L 757.00 459.00 L 757.00 461.45 C757.00,463.64 756.53,463.92 752.35,464.20 L 747.70 464.50 ZM 1138.35 482.48 C1138.66,483.26 1140.61,483.43 1144.54,483.00 C1151.47,482.23 1154.00,479.79 1154.00,473.84 C1154.00,469.03 1150.82,465.43 1145.71,464.47 C1138.88,463.19 1138.53,463.59 1138.21,472.93 C1138.05,477.55 1138.11,481.85 1138.35,482.48 ZM 905.05 459.00 L 904.50 488.50 L 901.75 488.82 L 899.00 489.13 L 899.00 459.00 ZM 1124.00 458.87 L 1124.00 489.00 L 1121.47 489.00 C1120.08,489.00 1118.71,488.41 1118.44,487.70 C1118.16,486.98 1118.07,480.35 1118.22,472.95 L 1118.50 459.50 L 1121.25 459.18 ZM 538.00 459.00 L 538.00 489.00 L 533.00 489.00 L 533.00 459.00 ZM 1024.00 464.00 L 1024.00 474.00 L 1028.07 474.00 C1033.71,474.00 1036.00,472.56 1036.00,469.00 C1036.00,465.44 1033.71,464.00 1028.07,464.00 ZM 994.00 464.00 L 994.00 474.00 L 998.07 474.00 C1003.71,474.00 1006.00,472.56 1006.00,469.00 C1006.00,465.44 1003.71,464.00 998.07,464.00 ZM 1202.00 464.00 L 1202.00 474.00 L 1205.78 474.00 C1210.50,474.00 1214.00,471.65 1214.00,468.48 C1214.00,465.48 1211.38,464.00 1206.07,464.00 ZM 646.00 464.00 L 646.00 474.00 L 649.78 474.00 C654.19,474.00 658.00,471.68 658.00,469.00 C658.00,466.32 654.19,464.00 649.78,464.00 ZM 841.00 464.00 L 841.00 474.00 L 844.78 474.00 C849.19,474.00 853.00,471.68 853.00,469.00 C853.00,466.32 849.19,464.00 844.78,464.00 ZM 454.82 334.93 C454.82,333.49 454.78,332.01 454.69,330.50 C454.17,321.32 451.48,312.97 447.06,305.81 C449.04,308.93 450.71,312.28 452.05,315.85 C454.13,321.38 455.03,328.07 454.82,334.93 ZM 490.07 335.31 C490.17,323.70 488.37,311.36 484.89,302.00 C488.65,312.09 490.36,323.76 490.07,335.31 ZM 456.73 402.83 C470.02,391.82 480.21,377.39 485.72,361.50 C484.95,363.84 484.07,366.11 483.10,368.28 C476.91,382.06 467.87,393.76 456.64,402.93 C456.67,402.89 456.70,402.86 456.73,402.83 ZM 446.45 363.51 C444.52,366.23 442.06,369.14 439.41,371.90 L 439.46 371.85 C444.60,366.38 448.35,360.98 450.85,355.23 C450.42,356.36 449.94,357.47 449.43,358.55 C449.23,358.98 449.00,359.42 448.75,359.87 C448.06,361.07 447.29,362.29 446.45,363.51 Z" fill="rgb(45,47,69)"/>
<path d="M 0.00 378.00 L 0.00 0.00 L 693.50 0.00 L 1387.00 0.00 L 1387.00 378.00 L 1387.00 756.00 L 693.50 756.00 L 0.00 756.00 L 0.00 378.00 ZM 288.34 524.50 C314.93,520.50 338.60,508.28 359.09,488.00 C374.10,473.14 386.51,453.60 394.04,433.00 C396.52,426.21 397.05,425.48 399.64,425.25 C437.68,421.96 468.42,400.98 483.10,368.28 C491.73,349.07 492.45,322.33 484.89,302.00 C476.16,278.50 454.83,258.88 428.50,250.12 C386.30,236.07 336.08,253.64 309.27,291.81 L 304.13 299.13 L 308.07 304.31 C312.67,310.39 317.29,321.02 319.00,329.50 C319.67,332.80 320.41,336.16 320.66,336.97 C320.91,337.81 323.04,334.82 325.60,330.03 C337.29,308.15 350.10,295.04 368.09,286.56 C378.37,281.71 385.85,280.00 396.82,280.00 C428.97,280.00 452.99,300.96 454.69,330.50 C455.66,347.25 451.19,359.38 439.46,371.85 C427.66,384.39 416.45,389.35 396.00,391.06 C376.62,392.67 369.80,397.64 364.03,414.31 C351.47,450.58 329.90,475.73 301.68,487.00 C276.67,496.99 252.42,493.97 236.46,478.88 C227.80,470.68 222.00,457.21 222.00,445.29 C222.00,442.38 221.83,440.00 221.62,440.00 C221.41,440.00 218.63,441.57 215.43,443.50 C207.88,448.04 199.81,451.04 193.25,451.73 C188.25,452.25 188.00,452.42 188.00,455.18 C188.00,459.95 191.02,473.08 193.53,479.27 C196.94,487.66 204.14,497.99 211.04,504.37 C230.23,522.15 257.27,529.19 288.34,524.50 ZM 538.00 474.00 L 538.00 459.00 L 535.50 459.00 L 533.00 459.00 L 533.00 474.00 L 533.00 489.00 L 535.50 489.00 L 538.00 489.00 L 538.00 474.00 ZM 552.22 478.86 L 552.50 468.72 L 560.00 478.83 C566.30,487.31 567.94,488.93 570.25,488.96 L 573.00 489.00 L 573.00 473.93 L 573.00 458.87 L 570.25 459.18 C567.51,459.50 567.50,459.54 567.00,468.75 L 566.50 478.00 L 559.20 468.50 C553.49,461.07 551.37,459.00 549.45,459.00 L 547.00 459.00 L 547.00 474.00 L 547.00 489.00 L 549.47 489.00 C551.90,489.00 551.93,488.89 552.22,478.86 ZM 595.00 476.50 L 595.00 464.00 L 600.07 464.00 C604.75,464.00 605.11,463.83 604.82,461.75 C604.51,459.57 604.09,459.49 592.25,459.22 L 580.00 458.94 L 580.00 461.47 C580.00,463.80 580.35,464.00 584.50,464.00 L 589.00 464.00 L 589.00 475.83 C589.00,482.34 589.30,487.97 589.67,488.33 C590.03,488.70 591.38,489.00 592.67,489.00 C594.99,489.00 595.00,488.93 595.00,476.50 ZM 633.00 486.00 L 633.00 483.00 L 624.50 483.00 L 616.00 483.00 L 616.00 479.50 L 616.00 476.00 L 623.50 476.00 C630.83,476.00 631.00,475.94 631.00,473.50 C631.00,471.05 630.84,471.00 623.44,471.00 L 615.87 471.00 L 616.19 467.75 L 616.50 464.50 L 624.75 464.21 C632.77,463.93 633.00,463.85 633.00,461.46 L 633.00 459.00 L 622.00 459.00 L 611.00 459.00 L 611.00 474.00 L 611.00 489.00 L 622.00 489.00 L 633.00 489.00 L 633.00 486.00 ZM 645.80 483.75 C646.08,479.46 646.35,479.00 648.56,479.00 C650.35,479.00 651.97,480.34 654.60,484.00 C657.51,488.05 658.74,489.00 661.13,489.00 C664.40,489.00 664.33,488.66 659.72,482.05 L 657.31 478.61 L 660.08 476.28 C665.61,471.63 664.59,464.05 658.00,460.75 C655.63,459.57 652.15,459.00 647.25,459.00 L 640.00 459.00 L 640.00 474.07 L 640.00 489.13 L 642.75 488.82 C645.27,488.53 645.53,488.10 645.80,483.75 ZM 676.34 479.20 C676.25,474.08 676.55,470.03 677.00,470.20 C677.45,470.36 680.91,474.55 684.68,479.50 C689.97,486.45 692.15,488.57 694.26,488.82 L 697.00 489.13 L 697.00 474.07 L 697.00 459.00 L 694.53 459.00 C692.09,459.00 692.07,459.10 691.78,469.25 L 691.50 479.50 L 684.00 469.50 C678.09,461.62 675.92,459.43 673.75,459.18 L 671.00 458.87 L 671.00 474.00 L 671.00 489.13 L 673.75 488.82 L 676.50 488.50 L 676.34 479.20 ZM 727.00 486.00 L 727.00 483.00 L 719.00 483.00 L 711.00 483.00 L 711.00 479.50 L 711.00 476.00 L 718.50 476.00 C725.83,476.00 726.00,475.94 726.00,473.50 C726.00,471.06 725.83,471.00 718.50,471.00 L 711.00 471.00 L 711.00 467.50 L 711.00 464.00 L 719.00 464.00 C726.90,464.00 727.00,463.97 727.00,461.47 L 727.00 458.93 L 716.25 459.22 L 705.50 459.50 L 705.22 472.95 C705.07,480.35 705.16,486.98 705.44,487.70 C705.80,488.65 708.75,489.00 716.47,489.00 L 727.00 489.00 L 727.00 486.00 ZM 747.60 476.50 L 747.70 464.50 L 752.35 464.20 C756.53,463.92 757.00,463.64 757.00,461.45 L 757.00 459.00 L 745.00 459.00 L 733.00 459.00 L 733.00 461.50 C733.00,463.80 733.37,464.00 737.50,464.00 L 742.00 464.00 L 742.00 476.57 L 742.00 489.13 L 744.75 488.82 L 747.50 488.50 L 747.60 476.50 ZM 794.93 487.54 C798.08,485.91 799.00,484.20 799.00,479.96 C799.00,476.19 796.25,473.76 789.62,471.67 C783.20,469.65 781.15,467.73 783.00,465.50 C784.60,463.58 789.28,463.58 793.01,465.51 C795.71,466.90 796.00,466.87 796.96,465.07 C798.47,462.26 798.35,462.04 794.53,460.45 C786.07,456.91 777.00,460.51 777.00,467.40 C777.00,472.08 778.73,473.79 785.99,476.28 C790.48,477.82 792.59,479.08 792.84,480.38 C793.55,484.09 787.30,485.24 781.83,482.41 C779.10,481.00 778.58,480.99 777.26,482.31 C772.74,486.83 787.72,491.26 794.93,487.54 ZM 828.00 486.00 L 828.00 483.00 L 819.50 483.00 L 811.00 483.00 L 811.00 479.50 L 811.00 476.00 L 818.50 476.00 C825.83,476.00 826.00,475.94 826.00,473.50 C826.00,471.05 825.84,471.00 818.44,471.00 L 810.87 471.00 L 811.19 467.75 L 811.50 464.50 L 819.75 464.21 C827.77,463.93 828.00,463.85 828.00,461.46 L 828.00 459.00 L 817.00 459.00 L 806.00 459.00 L 806.00 474.00 L 806.00 489.00 L 817.00 489.00 L 828.00 489.00 L 828.00 486.00 ZM 840.80 483.75 C841.09,479.33 841.30,479.00 843.80,479.02 C845.93,479.03 847.19,480.10 849.76,484.02 C852.46,488.16 853.52,489.00 856.01,489.00 C857.65,489.00 859.00,488.79 859.00,488.53 C859.00,488.27 857.58,486.05 855.85,483.59 L 852.69 479.11 L 855.85 475.52 C859.38,471.50 859.89,467.71 857.37,464.12 C854.96,460.67 849.94,459.00 842.03,459.00 L 835.00 459.00 L 835.00 474.07 L 835.00 489.13 L 837.75 488.82 C840.27,488.53 840.53,488.10 840.80,483.75 ZM 887.22 474.58 C890.40,466.92 893.00,460.25 893.00,459.76 C893.00,459.27 891.76,459.01 890.25,459.18 C887.78,459.47 887.02,460.62 882.78,470.49 C878.16,481.26 878.04,481.42 876.98,478.49 C876.38,476.85 874.43,471.90 872.64,467.50 C869.58,459.96 869.21,459.48 866.09,459.18 C864.27,459.00 862.95,459.26 863.14,459.76 C863.34,460.26 866.16,467.06 869.40,474.88 C875.29,489.07 875.32,489.10 878.38,488.80 C881.32,488.51 881.69,487.92 887.22,474.58 ZM 904.78 473.75 L 905.05 459.00 L 902.03 459.00 L 899.00 459.00 L 899.00 474.07 L 899.00 489.13 L 901.75 488.82 L 904.50 488.50 L 904.78 473.75 ZM 935.17 486.91 L 939.27 484.82 L 937.26 482.82 C935.38,480.93 935.08,480.91 932.18,482.41 C927.57,484.79 924.24,484.40 920.92,481.08 C913.02,473.17 921.68,460.62 931.73,465.41 C935.04,466.99 935.36,466.98 937.17,465.35 C939.05,463.65 939.00,463.55 935.30,461.31 C928.01,456.90 917.78,459.60 913.85,466.98 C906.79,480.26 921.42,493.93 935.17,486.91 ZM 967.00 486.00 L 967.00 483.00 L 959.00 483.00 L 951.00 483.00 L 951.00 479.50 L 951.00 476.00 L 958.50 476.00 C965.83,476.00 966.00,475.94 966.00,473.50 C966.00,471.06 965.83,471.00 958.50,471.00 L 951.00 471.00 L 951.00 467.50 L 951.00 464.00 L 959.00 464.00 C966.87,464.00 967.00,463.96 967.00,461.50 L 967.00 459.00 L 956.00 459.00 L 945.00 459.00 L 945.00 474.00 L 945.00 489.00 L 956.00 489.00 L 967.00 489.00 L 967.00 486.00 ZM 994.00 484.00 L 994.00 479.00 L 999.05 479.00 C1007.53,479.00 1012.00,475.54 1012.00,469.00 C1012.00,461.83 1007.34,459.00 995.53,459.00 L 988.00 459.00 L 988.00 474.00 L 988.00 489.00 L 991.00 489.00 C993.93,489.00 994.00,488.89 994.00,484.00 ZM 1024.00 484.00 C1024.00,479.15 1024.09,479.00 1026.90,479.00 C1029.28,479.00 1030.36,479.89 1033.00,484.00 C1035.64,488.11 1036.72,489.00 1039.10,489.00 C1040.70,489.00 1042.00,488.74 1042.00,488.43 C1042.00,488.12 1040.60,485.83 1038.89,483.35 L 1035.79 478.83 L 1038.89 475.80 C1041.18,473.56 1042.00,471.85 1042.00,469.32 C1042.00,461.81 1037.52,459.00 1025.53,459.00 L 1018.00 459.00 L 1018.00 474.00 L 1018.00 489.00 L 1021.00 489.00 C1023.93,489.00 1024.00,488.89 1024.00,484.00 ZM 1071.01 486.75 C1076.46,483.04 1078.51,479.49 1078.43,473.90 C1078.31,465.85 1072.62,459.99 1064.32,459.35 C1055.43,458.67 1049.04,463.98 1048.32,472.68 C1047.30,484.90 1061.13,493.48 1071.01,486.75 ZM 1106.56 474.86 C1109.83,467.08 1112.66,460.30 1112.86,459.79 C1113.05,459.28 1111.72,459.00 1109.89,459.18 C1106.69,459.49 1106.42,459.86 1102.30,469.91 C1099.95,475.63 1097.86,480.47 1097.67,480.66 C1097.48,480.86 1095.38,476.06 1093.00,470.01 C1088.92,459.59 1088.54,459.00 1085.84,459.00 C1084.28,459.00 1083.00,459.50 1083.00,460.10 C1083.00,461.17 1092.23,483.67 1094.14,487.25 C1094.68,488.27 1096.22,489.00 1097.85,489.00 C1100.48,489.00 1100.95,488.23 1106.56,474.86 ZM 1124.00 473.93 L 1124.00 458.87 L 1121.25 459.18 L 1118.50 459.50 L 1118.22 472.95 C1118.07,480.35 1118.16,486.98 1118.44,487.70 C1118.71,488.41 1120.08,489.00 1121.47,489.00 L 1124.00 489.00 L 1124.00 473.93 ZM 1152.30 486.58 C1158.78,483.42 1161.85,474.46 1158.59,468.20 C1155.27,461.81 1149.24,459.02 1138.75,459.01 L 1133.00 459.00 L 1133.00 474.11 L 1133.00 489.21 L 1140.75 488.82 C1145.54,488.58 1149.95,487.72 1152.30,486.58 ZM 1188.82 486.25 C1188.50,483.53 1188.42,483.50 1180.25,483.21 L 1172.00 482.92 L 1172.00 479.46 L 1172.00 476.00 L 1179.50 476.00 C1186.83,476.00 1187.00,475.94 1187.00,473.50 C1187.00,471.08 1186.79,471.00 1180.12,471.00 C1173.40,471.00 1173.22,470.93 1172.71,468.26 C1172.42,466.75 1172.39,465.17 1172.65,464.76 C1172.91,464.34 1176.69,464.00 1181.06,464.00 C1188.86,464.00 1189.00,463.96 1189.00,461.50 L 1189.00 459.00 L 1178.00 459.00 L 1167.00 459.00 L 1167.00 474.00 L 1167.00 489.00 L 1178.07 489.00 L 1189.13 489.00 L 1188.82 486.25 ZM 1201.80 483.75 C1202.09,479.27 1202.27,479.00 1204.95,479.00 C1207.27,479.00 1208.39,479.93 1211.00,484.00 C1213.64,488.11 1214.72,489.00 1217.10,489.00 C1218.70,489.00 1220.00,488.74 1220.00,488.43 C1220.00,488.12 1218.62,485.85 1216.93,483.39 L 1213.86 478.93 L 1216.93 475.43 C1220.88,470.93 1220.95,467.09 1217.14,462.83 C1214.39,459.75 1213.92,459.61 1205.14,459.19 L 1196.00 458.76 L 1196.00 473.94 L 1196.00 489.13 L 1198.75 488.82 C1201.27,488.53 1201.53,488.10 1201.80,483.75 ZM 319.00 450.89 C324.90,448.29 332.09,441.12 337.09,432.85 C339.30,429.19 344.03,419.07 347.59,410.35 C359.60,381.00 366.54,369.49 380.49,355.81 L 387.31 349.12 L 394.76 356.81 L 402.20 364.50 L 408.55 333.50 C415.63,298.87 415.82,297.51 413.25,298.32 C410.17,299.30 366.81,310.94 358.00,313.15 C353.33,314.32 349.12,315.62 348.65,316.04 C348.18,316.46 350.75,318.98 354.36,321.65 C357.97,324.32 360.93,326.73 360.95,327.00 C360.96,327.27 356.14,332.46 350.24,338.51 C337.81,351.26 334.38,356.15 324.33,375.41 C316.57,390.30 314.40,393.74 313.41,392.74 C313.07,392.40 312.38,386.59 311.87,379.81 C309.81,352.39 307.92,336.13 305.99,329.17 C300.09,307.96 289.94,298.00 274.24,298.00 C265.76,298.00 260.00,299.89 253.53,304.78 C244.18,311.85 233.41,327.61 225.72,345.50 C223.82,349.90 219.67,359.58 216.50,367.00 C206.07,391.36 198.75,404.29 191.61,410.92 C188.16,414.13 188.29,415.42 191.88,413.56 C200.73,408.98 212.75,394.58 224.50,374.48 C238.90,349.83 251.49,342.47 262.58,352.20 C269.77,358.51 271.51,365.38 272.48,391.18 C273.58,420.38 277.09,433.72 286.28,443.69 C295.31,453.48 307.18,456.09 319.00,450.89 ZM 195.56 439.93 C203.58,438.00 215.99,431.71 223.56,425.74 C231.52,419.48 239.15,410.54 247.26,398.00 C260.35,377.76 262.88,368.73 257.08,362.92 C253.81,359.65 251.27,359.29 247.00,361.50 C243.33,363.40 240.53,367.21 234.52,378.50 C223.05,400.04 209.49,415.71 195.61,423.47 C183.82,430.07 176.07,432.24 162.00,432.91 L 149.50 433.50 L 155.03 436.17 C166.43,441.69 182.21,443.15 195.56,439.93 ZM 706.51 431.91 C713.55,430.61 724.45,425.30 728.20,421.35 L 730.89 418.50 L 723.54 411.77 L 716.19 405.03 L 710.48 408.47 C700.21,414.66 688.51,414.17 680.83,407.23 C677.04,403.80 674.00,399.28 674.00,397.05 C674.00,396.34 684.17,396.00 705.50,396.00 L 737.00 396.00 L 736.99 390.25 C736.95,377.20 731.24,363.06 723.07,355.79 C701.90,336.95 666.32,344.12 653.81,369.74 C650.64,376.24 650.51,376.96 650.50,388.50 C650.50,399.94 650.65,400.82 653.71,407.27 C662.57,425.97 684.16,436.05 706.51,431.91 ZM 794.19 430.47 C801.28,428.03 801.51,427.40 798.82,418.01 C796.75,410.77 796.29,409.97 794.50,410.58 C789.29,412.35 783.43,412.17 780.96,410.17 C778.51,408.19 778.50,408.13 778.19,387.09 L 777.89 366.00 L 788.09 366.00 L 798.28 366.00 L 797.64 359.85 C797.29,356.47 797.00,352.20 797.00,350.35 L 797.00 347.00 L 787.50 347.00 L 778.00 347.00 L 778.00 335.50 L 778.00 324.00 L 766.50 324.00 L 755.00 324.00 L 754.80 328.75 C754.70,331.36 754.74,336.54 754.90,340.25 L 755.20 347.00 L 748.60 347.00 L 742.00 347.00 L 742.00 356.50 L 742.00 366.00 L 748.25 366.00 L 754.50 366.00 L 754.50 388.75 C754.50,412.98 754.98,416.18 759.62,423.07 C765.59,431.94 780.61,435.15 794.19,430.47 ZM 960.20 431.96 C962.23,431.40 966.21,429.37 969.05,427.47 C971.88,425.56 974.38,424.00 974.60,424.00 C974.82,424.00 975.00,425.58 975.00,427.50 L 975.00 431.00 L 987.00 431.00 L 999.00 431.00 L 999.00 388.47 L 999.00 345.94 L 986.75 346.22 L 974.50 346.50 L 974.00 373.50 C973.54,398.18 973.33,400.79 971.50,403.90 C968.38,409.19 964.79,411.32 958.26,411.75 C951.30,412.20 946.50,409.97 943.50,404.89 C941.67,401.79 941.46,399.18 941.00,374.00 L 940.50 346.50 L 928.70 346.22 L 916.90 345.94 L 917.20 377.72 L 917.50 409.50 L 920.15 415.15 C925.70,427.00 935.21,432.86 949.00,432.94 C953.12,432.97 958.16,432.53 960.20,431.96 ZM 1108.00 429.86 C1119.61,424.50 1124.97,416.72 1124.99,405.21 C1125.00,397.73 1122.83,392.81 1117.41,388.06 C1112.51,383.75 1107.43,381.68 1095.01,378.90 C1080.11,375.58 1074.83,371.18 1080.06,366.44 C1081.83,364.85 1083.70,364.50 1090.45,364.50 C1098.04,364.50 1099.29,364.80 1106.36,368.40 C1110.59,370.54 1114.20,372.12 1114.39,371.90 C1115.91,370.15 1122.77,355.44 1122.37,354.79 C1121.34,353.13 1110.20,348.11 1103.92,346.47 C1099.25,345.26 1094.63,344.91 1087.00,345.19 C1078.09,345.52 1075.55,346.01 1070.24,348.43 C1063.53,351.49 1057.72,357.02 1055.40,362.58 C1054.63,364.42 1054.00,368.67 1054.00,372.01 C1054.00,385.42 1062.62,393.24 1081.50,396.95 C1095.36,399.68 1101.00,402.44 1101.00,406.50 C1101.00,414.93 1079.51,415.15 1066.42,406.85 C1063.86,405.23 1061.06,404.03 1060.20,404.20 C1057.76,404.67 1050.46,418.92 1051.67,420.84 C1053.32,423.45 1064.24,428.89 1072.10,431.01 C1083.03,433.96 1100.31,433.41 1108.00,429.86 ZM 1193.50 431.64 C1200.53,429.76 1207.94,425.76 1211.74,421.80 L 1214.98 418.43 L 1207.98 411.48 C1201.32,404.87 1200.87,404.60 1198.74,405.98 C1191.34,410.78 1187.58,412.00 1180.30,412.00 C1171.75,412.00 1167.74,410.55 1163.31,405.87 C1160.01,402.38 1157.68,397.66 1158.73,396.60 C1159.06,396.27 1173.03,396.00 1189.78,396.00 L 1220.23 396.00 L 1219.80 385.75 C1219.43,376.94 1218.93,374.56 1216.29,368.84 C1209.03,353.15 1195.51,344.77 1177.67,344.90 C1159.54,345.03 1145.66,352.87 1138.49,367.02 C1128.89,385.97 1132.19,407.74 1146.69,421.00 C1155.90,429.43 1165.26,432.78 1180.00,432.90 C1184.68,432.94 1190.75,432.37 1193.50,431.64 ZM 557.24 395.33 L 557.50 359.67 L 584.50 395.30 L 611.50 430.93 L 623.50 430.71 L 635.50 430.50 L 635.76 375.25 L 636.02 320.00 L 624.17 320.00 L 612.32 320.00 L 611.83 346.75 C611.55,361.46 611.37,377.44 611.42,382.25 C611.46,387.06 611.27,390.99 610.99,391.00 C610.71,391.00 609.92,390.10 609.24,389.01 C608.55,387.92 596.48,371.94 582.40,353.51 L 556.80 320.00 L 544.90 320.00 L 533.00 320.00 L 533.00 375.50 L 533.00 431.00 L 544.99 431.00 L 556.97 431.00 L 557.24 395.33 ZM 838.00 413.00 L 838.00 395.00 L 855.89 395.00 C870.90,395.00 874.82,394.68 880.19,393.02 C892.11,389.34 902.18,379.93 905.19,369.66 C907.02,363.43 906.78,350.39 904.73,344.50 C901.24,334.45 891.78,325.40 881.01,321.78 C878.70,321.01 866.46,320.48 845.25,320.25 L 813.00 319.90 L 813.00 375.45 L 813.00 431.00 L 825.50 431.00 L 838.00 431.00 L 838.00 413.00 ZM 1040.00 374.00 L 1040.00 317.00 L 1027.50 317.00 L 1015.00 317.00 L 1015.00 374.00 L 1015.00 431.00 L 1027.50 431.00 L 1040.00 431.00 L 1040.00 374.00 ZM 646.00 469.00 L 646.00 464.00 L 649.78 464.00 C654.19,464.00 658.00,466.32 658.00,469.00 C658.00,471.68 654.19,474.00 649.78,474.00 L 646.00 474.00 L 646.00 469.00 ZM 841.00 469.00 L 841.00 464.00 L 844.78 464.00 C849.19,464.00 853.00,466.32 853.00,469.00 C853.00,471.68 849.19,474.00 844.78,474.00 L 841.00 474.00 L 841.00 469.00 ZM 994.00 469.00 L 994.00 464.00 L 998.07 464.00 C1003.71,464.00 1006.00,465.44 1006.00,469.00 C1006.00,472.56 1003.71,474.00 998.07,474.00 L 994.00 474.00 L 994.00 469.00 ZM 1024.00 469.00 L 1024.00 464.00 L 1028.07 464.00 C1033.71,464.00 1036.00,465.44 1036.00,469.00 C1036.00,472.56 1033.71,474.00 1028.07,474.00 L 1024.00 474.00 L 1024.00 469.00 ZM 1058.78 482.44 C1055.32,480.57 1054.00,478.09 1054.00,473.49 C1054.00,469.06 1058.46,464.00 1062.38,464.00 C1072.89,464.00 1076.98,477.86 1067.85,482.57 C1064.41,484.36 1062.24,484.32 1058.78,482.44 ZM 1138.35 482.48 C1138.11,481.85 1138.05,477.55 1138.21,472.93 C1138.53,463.59 1138.88,463.19 1145.71,464.47 C1150.82,465.43 1154.00,469.03 1154.00,473.84 C1154.00,479.79 1151.47,482.23 1144.54,483.00 C1140.61,483.43 1138.66,483.26 1138.35,482.48 ZM 1202.00 469.00 L 1202.00 464.00 L 1206.07 464.00 C1211.38,464.00 1214.00,465.48 1214.00,468.48 C1214.00,471.65 1210.50,474.00 1205.78,474.00 L 1202.00 474.00 L 1202.00 469.00 ZM 674.00 379.45 C674.00,376.23 681.78,367.77 686.32,366.06 C690.63,364.43 699.05,364.84 703.50,366.88 C708.27,369.07 710.39,371.30 712.48,376.29 L 714.03 380.00 L 694.01 380.00 C683.01,380.00 674.00,379.75 674.00,379.45 ZM 1159.00 378.15 C1159.00,374.84 1164.56,368.39 1168.92,366.65 C1177.87,363.07 1188.16,365.47 1193.10,372.30 C1198.64,379.95 1198.53,380.00 1177.50,380.00 C1160.17,380.00 1159.00,379.88 1159.00,378.15 ZM 838.06 359.32 C838.20,351.72 838.50,344.71 838.72,343.75 C839.09,342.18 840.68,342.00 854.32,342.00 C866.78,342.00 870.12,342.32 872.98,343.75 C883.39,348.98 883.76,362.93 873.68,370.41 C871.14,372.30 869.25,372.53 854.33,372.82 L 837.80 373.14 L 838.06 359.32 Z" fill="rgb(212,213,213)"/>
</g>
</svg>